<svg xmlns="http://www.w3.org/2000/svg" x="0px" y="0px" width="100" height="100" viewBox="0 0 40 40">
<path fill="#98ccfd" d="M29.5,37.5h-19c-4.418,0-8-3.582-8-8v-19c0-4.418,3.582-8,8-8h19c4.418,0,8,3.582,8,8v19	C37.5,33.918,33.918,37.5,29.5,37.5z"></path><path fill="#4788c7" d="M29.5,38h-19C5.813,38,2,34.187,2,29.5v-19C2,5.813,5.813,2,10.5,2h19c4.687,0,8.5,3.813,8.5,8.5v19	C38,34.187,34.187,38,29.5,38z M10.5,3C6.364,3,3,6.364,3,10.5v19c0,4.136,3.364,7.5,7.5,7.5h19c4.136,0,7.5-3.364,7.5-7.5v-19	C37,6.364,33.636,3,29.5,3H10.5z"></path><path fill="#fff" d="M33.995,20.924c-0.003-0.11-0.011-0.217-0.021-0.326c0,0,0-0.001,0-0.002	c0,0,0-0.001,0-0.002c-0.104-1.181-0.494-2.286-1.156-3.284c-0.295-0.445-0.634-0.849-1.011-1.212	c-0.552-0.531-1.191-0.971-1.912-1.318C28.81,14.261,27.612,14,26.333,14c-0.125,0-0.256,0.002-0.387,0.007	c-0.898,0.041-1.766,0.211-2.582,0.511c-0.823,0.298-1.54,0.69-2.126,1.162c-0.119,0.095-0.249,0.211-0.388,0.339l-0.1,0.099	l-0.137,0.146h0.001h0.001l-0.064,0.063l-0.032,0.036l-0.164,0.172c-0.121,0.136-0.237,0.273-0.345,0.406l-0.001-0.002l-0.003-0.003	c-0.224,0.273-0.432,0.555-0.584,0.809c-0.103,0.163-0.204,0.33-0.301,0.498l-1.338,2.706l0.002,0.002l-0.07,0.137l-0.148,0.299	c-0.293,0.594-0.608,1.186-0.959,1.674c-0.783,0.859-1.669,1.279-2.807,1.279c-0.08,0-0.161-0.003-0.244-0.007	c-0.686-0.029-1.274-0.189-1.795-0.498c-0.056-0.032-0.11-0.067-0.162-0.102c-0.426-0.283-0.753-0.647-0.997-1.1	c-0.276-0.514-0.398-1.04-0.381-1.597c0.001-0.014,0.002-0.029,0.002-0.041c0.037-0.886,0.375-1.576,1.056-2.171	c0.166-0.143,0.339-0.264,0.52-0.372c0.025-0.014,0.051-0.029,0.077-0.043c0.506-0.276,1.081-0.413,1.741-0.413l0.205,0.007	c1.048,0.04,1.857,0.367,2.502,1.007l2.023-3.632c-0.484-0.324-1.03-0.602-1.632-0.829c-0.021-0.007-0.047-0.018-0.07-0.025	c-0.072-0.025-0.143-0.052-0.217-0.076c-0.64-0.214-1.312-0.346-2.003-0.405l0,0c-0.018-0.003-0.036-0.003-0.053-0.007	c-0.106-0.007-0.214-0.021-0.32-0.025c-0.116-0.003-0.232-0.007-0.346-0.007h-0.066c-1.272,0.003-2.454,0.265-3.534,0.781	c-1.21,0.583-2.191,1.433-2.919,2.527c-0.725,1.095-1.121,2.31-1.178,3.614C6.004,21.038,6,21.149,6,21.257	c-0.001,1.824,0.664,3.428,1.986,4.775c1.38,1.413,3.174,2.174,5.329,2.264c0.138,0.007,0.275,0.011,0.411,0.011	c1.219,0,2.347-0.217,3.358-0.651c0.253-0.108,0.498-0.235,0.749-0.376c0.136-0.079,0.265-0.162,0.393-0.251l0.095-0.063	l0.159-0.109c0.191-0.137,0.37-0.286,0.544-0.444l0.061-0.058c0.102-0.098,0.205-0.196,0.301-0.298l0.363-0.41l0.138-0.173	l0.064-0.095l0.064-0.093c0.539-0.905,2.293-4.2,2.293-4.2V21.08l0.104-0.201l0.087-0.157c0.258-0.471,0.445-0.805,0.692-1.156	l0.007-0.011c0.577-0.836,1.568-1.432,2.737-1.532c1.96-0.169,3.678,1.119,3.836,2.877c0.157,1.758-1.305,3.319-3.265,3.489	c-0.408,0.036-0.805,0.007-1.179-0.075l-0.011,0.003c-1.439-0.299-2.354-1.349-2.806-1.817l-1.886,3.469	c0,0,0.586,0.591,0.988,0.886c0.402,0.294,0.922,0.584,1.337,0.764c1.007,0.43,2.101,0.687,3.311,0.687c0.14,0,0.112,0,0.258-0.007	c2.152-0.09,4.071-0.915,5.455-2.328c1.31-1.342,2.022-2.874,2.028-4.688v-0.054c-0.001-0.1-0.003-0.202-0.007-0.304L33.995,20.924z"></path>
</svg>